<svg width="78" height="78" viewBox="0 0 78 78" fill="none" xmlns="http://www.w3.org/2000/svg">
<path d="M66.4243 11.3957C59.0793 4.05067 49.2972 0 38.91 0C28.5228 0 18.7407 4.05067 11.3957 11.3957C4.05067 18.7407 0 28.5228 0 38.91C0 49.2972 4.05067 59.0793 11.3957 66.4243C18.7407 73.7693 28.5228 77.82 38.91 77.82C49.2972 77.82 59.0793 73.7693 66.4243 66.4243C73.7693 59.0793 77.82 49.2972 77.82 38.91C77.82 28.5228 73.7693 18.7407 66.4243 11.3957ZM64.6427 64.6427C57.7683 71.5171 48.6249 75.2988 38.91 75.2988C29.1951 75.2988 20.0517 71.5171 13.1773 64.6427C6.30292 57.7683 2.52117 48.6249 2.52117 38.91C2.52117 29.1951 6.30292 20.0517 13.1773 13.1773C20.0517 6.30292 29.1951 2.52117 38.91 2.52117C48.6249 2.52117 57.7683 6.30292 64.6427 13.1773C71.5171 20.0517 75.2988 29.1951 75.2988 38.91C75.2988 48.6249 71.5171 57.7683 64.6427 64.6427Z" fill="white"/>
<path d="M59.2306 28.3379C58.5919 28.6236 58.3229 29.3799 58.6087 30.0018C59.8693 32.8087 60.5248 35.8005 60.5248 38.8931C60.5248 46.692 56.2892 53.8521 49.5997 57.6674V12.0175C49.5997 11.5133 49.2972 11.0595 48.8434 10.8578C48.3896 10.6561 47.8517 10.7401 47.4819 11.0931C46.2382 12.236 45.1793 13.7151 44.2716 15.3959C42.5236 15.0093 40.7252 14.8076 38.9268 14.8076C38.4393 14.8076 37.9687 14.8244 37.4981 14.858V12.0175C37.4981 11.3284 36.9267 10.7569 36.2375 10.7569C35.5484 10.7569 34.9769 11.3284 34.9769 12.0175V15.1101C34.0021 15.2782 33.0441 15.4967 32.1196 15.7656V12.0175C32.1196 11.3284 31.5482 10.7569 30.859 10.7569C30.1699 10.7569 29.5985 11.3284 29.5985 12.0175V16.6733C28.6068 17.0935 27.6488 17.5641 26.7411 18.1019V12.0175C26.7411 11.3284 26.1697 10.7569 25.4806 10.7569C24.7914 10.7569 24.22 11.3284 24.22 12.0175V19.7995C18.5053 24.22 14.8076 31.128 14.8076 38.91C14.8076 45.3305 17.312 51.3813 21.8501 55.9362C22.1022 56.1883 22.4215 56.306 22.7409 56.306C23.0602 56.306 23.3796 56.1883 23.6317 55.9362C24.1191 55.4488 24.1191 54.642 23.6317 54.1546C19.5474 50.0871 17.312 44.6582 17.312 38.91C17.312 32.6743 19.9676 27.0605 24.2032 23.1106V28.153C24.2032 29.8842 25.3293 31.3633 26.8924 31.9011V63.1131C26.8924 65.2982 28.6572 67.063 30.8422 67.063C33.0272 67.063 34.7921 65.2982 34.7921 63.1131V62.6761C36.1535 62.9115 37.5317 63.0291 38.91 63.0291C39.8344 63.0291 40.7588 62.9787 41.6832 62.8778V63.1131C41.6832 65.2982 43.4481 67.063 45.6331 67.063C47.8181 67.063 49.5829 65.2982 49.5829 63.1131V60.5416C57.7851 56.4909 63.0291 48.087 63.0291 38.91C63.0291 35.4475 62.3064 32.1028 60.8945 28.9766C60.6088 28.3379 59.8525 28.0521 59.2306 28.3379ZM34.9601 17.6817V24.2031H32.1028V18.4045C33.0272 18.1019 33.9853 17.8498 34.9601 17.6817ZM29.5817 19.4297V24.2031H26.7243V21.0937C27.632 20.4718 28.59 19.9172 29.5817 19.4297ZM32.2709 63.1131C32.2709 63.9031 31.6322 64.5418 30.8422 64.5418C30.0523 64.5418 29.4136 63.9031 29.4136 63.1131V30.8422C29.4136 30.1531 28.8421 29.5816 28.153 29.5816C27.363 29.5816 26.7243 28.9429 26.7243 28.153V26.7243H30.8422H34.9601V28.153C34.9601 28.9429 34.3214 29.5816 33.5315 29.5816C32.8424 29.5816 32.2709 30.1531 32.2709 30.8422V63.1131ZM38.91 60.5079C37.5317 60.5079 36.1367 60.3735 34.7921 60.1214V31.9011C36.3552 31.3801 37.4813 29.901 37.4813 28.153V17.3624C37.9519 17.3288 38.4225 17.312 38.91 17.312C40.3386 17.312 41.7505 17.4464 43.1287 17.7322C38.6074 28.4891 38.9604 44.8095 38.994 45.6667C39.0108 46.3558 39.5655 46.8936 40.2546 46.8936H41.6832V60.3231C40.7588 60.4407 39.8344 60.5079 38.91 60.5079ZM47.0617 63.1131C47.0617 63.9031 46.423 64.5418 45.6331 64.5418C44.8431 64.5418 44.2044 63.9031 44.2044 63.1131V45.6331C44.2044 44.9439 43.6329 44.3725 42.9438 44.3725H41.4984C41.4984 42.1875 41.5824 37.3468 42.2547 32.002C43.1623 24.741 44.8095 19.144 47.0617 15.5471V63.1131Z" fill="white"/>
<path d="M71.7188 31.918C70.3742 25.5983 67.2479 19.8332 62.6594 15.2279C62.172 14.7404 61.3652 14.7404 60.8778 15.2279C60.3904 15.7153 60.3904 16.5221 60.8778 17.0095C65.1133 21.2619 68.0043 26.6067 69.248 32.439C69.3657 33.0273 69.9035 33.4307 70.475 33.4307C70.5591 33.4307 70.6431 33.4139 70.7439 33.3971C71.4162 33.2794 71.8533 32.6071 71.7188 31.918Z" fill="white"/>
</svg>
