<svg width="78" height="78" viewBox="0 0 78 78" fill="none" xmlns="http://www.w3.org/2000/svg">
<path d="M45.395 54.474V57.068H70.038C70.7514 57.068 71.335 56.4844 71.335 55.771V44.098C71.335 43.3847 70.7514 42.801 70.038 42.801H45.395V45.395H68.741V54.474H45.395Z" fill="white"/>
<path d="M75.226 67.444H45.395V70.038H75.226C75.226 72.9076 72.9076 75.226 70.038 75.226H41.504C41.1474 75.226 40.8069 75.1936 40.4664 75.1287L39.9476 77.6741C40.4664 77.7714 40.9852 77.8362 41.504 77.8362H70.038C74.3343 77.8362 77.82 74.3505 77.82 70.0542V45.395H75.226V67.444Z" fill="white"/>
<path d="M71.6593 24.643H71.335V20.752H72.3078C73.9128 20.752 75.226 19.4388 75.226 17.8337V4.5395C75.226 2.02656 73.1995 0 70.6865 0H46.692V2.594H70.6865C71.7566 2.594 72.632 3.46947 72.632 4.5395V17.8337C72.632 18.0121 72.4861 18.158 72.3078 18.158H39.2343C39.056 18.158 38.91 18.0121 38.91 17.8337V4.5395C38.91 3.46947 39.7855 2.594 40.8555 2.594H44.098V0H40.8555C38.3426 0 36.316 2.02656 36.316 4.5395V17.8337C36.316 19.4388 37.6293 20.752 39.2343 20.752H40.207V24.643H39.8828C36.4782 24.643 33.722 27.3991 33.722 30.8037V31.128H36.316V30.8037C36.316 28.842 37.9211 27.237 39.8828 27.237H71.6593C73.621 27.237 75.226 28.842 75.226 30.8037V36.316H42.801V38.91H75.226V42.801H77.82V30.8037C77.82 27.3991 75.0639 24.643 71.6593 24.643ZM42.801 24.643V20.752H68.741V24.643H42.801Z" fill="white"/>
<path d="M41.504 5.18799H44.098V15.564H41.504V5.18799Z" fill="white"/>
<path d="M46.692 5.18799H49.286V15.564H46.692V5.18799Z" fill="white"/>
<path d="M51.88 5.18799H54.474V15.564H51.88V5.18799Z" fill="white"/>
<path d="M57.068 5.18799H59.662V15.564H57.068V5.18799Z" fill="white"/>
<path d="M62.256 5.18799H64.85V15.564H62.256V5.18799Z" fill="white"/>
<path d="M67.444 5.18799H70.038V15.564H67.444V5.18799Z" fill="white"/>
<path d="M45.395 60.959H53.177V63.553H45.395V60.959Z" fill="white"/>
<path d="M55.771 60.959H71.335V63.553H55.771V60.959Z" fill="white"/>
<path d="M17.5419 23.1839L21.4005 25.2915L23.5081 29.1501C23.8486 29.7824 24.643 30.0093 25.2753 29.6689C25.4861 29.5554 25.6644 29.3771 25.7941 29.1501L27.9017 25.2915L31.7603 23.1839C32.3926 22.8434 32.6196 22.049 32.2791 21.4167C32.1656 21.206 31.9873 21.0276 31.7603 20.8979L27.8855 18.8065L25.7779 14.9479C25.4374 14.3156 24.643 14.0887 24.0107 14.4291C23.8 14.5426 23.6216 14.721 23.4919 14.9479L21.4005 18.8065L17.5419 20.9141C16.9096 21.2546 16.6827 22.049 17.0231 22.6813C17.1366 22.8921 17.315 23.0704 17.5419 23.1839ZM22.9731 20.8979C23.1839 20.7844 23.3622 20.6061 23.4919 20.3791L24.643 18.2715L25.7941 20.3791C25.9076 20.5899 26.0859 20.7682 26.3129 20.8979L28.4205 22.049L26.3129 23.2001C26.1021 23.3136 25.9238 23.4919 25.7941 23.7189L24.643 25.8265L23.4919 23.7189C23.3784 23.5081 23.2001 23.3298 22.9731 23.2001L20.8655 22.049L22.9731 20.8979Z" fill="white"/>
<path d="M42.801 46.3677C42.801 39.3801 37.1428 33.722 30.1552 33.722H29.5067C23.5081 33.7382 18.3201 37.9534 17.1204 43.8386L19.6657 44.3574C20.6385 39.6882 24.7402 36.3322 29.5229 36.316H30.1714C35.7161 36.316 40.2232 40.8231 40.2232 46.3677V53.177H32.4412V55.771H40.2232V58.365H33.7382V60.959H40.2232V65.1742C40.2232 70.7189 35.7161 75.226 30.1714 75.226H29.5229C28.4529 75.226 27.3829 75.0639 26.3615 74.7234L25.5509 77.1877C26.8316 77.6092 28.1773 77.82 29.5229 77.82H30.1714C37.159 77.82 42.8172 72.1618 42.8172 65.1742V46.3677H42.801Z" fill="white"/>
<path d="M3.61541 14.4129L6.20941 15.8396L7.63611 18.4336C7.97658 19.0659 8.77099 19.2929 9.40328 18.9524C9.61404 18.8389 9.79238 18.6606 9.92208 18.4336L11.3488 15.8396L13.9428 14.4129C14.5751 14.0725 14.802 13.278 14.4616 12.6458C14.3481 12.435 14.1698 12.2567 13.9428 12.127L11.3488 10.7003L9.92208 8.10626C9.58161 7.47397 8.7872 7.247 8.15491 7.58746C7.94415 7.70095 7.76581 7.87928 7.63611 8.10626L6.20941 10.7003L3.61541 12.127C2.98313 12.4674 2.75615 13.2618 3.09661 13.8941C3.2101 14.1211 3.38844 14.2994 3.61541 14.4129ZM7.78203 12.8079C7.99279 12.6944 8.17113 12.5161 8.30083 12.2891L8.77099 11.4298L9.24115 12.2891C9.35464 12.4998 9.53298 12.6782 9.75995 12.8079L10.6192 13.278L9.75995 13.7482C9.54919 13.8617 9.37085 14.04 9.24115 14.267L8.77099 15.1263L8.30083 14.267C8.18734 14.0562 8.009 13.8779 7.78203 13.7482L6.92276 13.278L7.78203 12.8079Z" fill="white"/>
<path d="M31.128 62.256C31.128 53.6634 24.1566 46.692 15.564 46.692C6.97138 46.692 0 53.6634 0 62.256C0 70.8486 6.97138 77.82 15.564 77.82C24.1566 77.8038 31.1118 70.8486 31.128 62.256ZM28.534 62.256C28.534 64.3474 28.0314 66.4064 27.0587 68.2546L9.56538 50.7614C15.9207 47.454 23.7513 49.9021 27.0587 56.2574C28.0314 58.1056 28.534 60.1646 28.534 62.256ZM23.7675 72.2916L12.5971 61.1211L10.7651 62.9532L21.5626 73.7507C15.2073 77.058 7.37669 74.6099 4.06934 68.2546C2.10762 64.4933 2.10762 60.0187 4.06934 56.2574L8.38186 60.5699L10.2139 58.7379L5.52846 54.0525C6.07969 53.3878 6.69576 52.7717 7.36048 52.2205L25.5995 70.4595C25.0483 71.1243 24.4322 71.7403 23.7675 72.2916Z" fill="white"/>
</svg>
