<svg width="78" height="94" viewBox="0 0 78 94" fill="none" xmlns="http://www.w3.org/2000/svg">
<path d="M50.5094 85.3891C50.4912 85.2799 50.4548 85.1526 50.4002 85.0434C50.3456 84.9342 50.291 84.8251 50.2364 84.7341C50.1636 84.6431 50.0909 84.5339 49.9999 84.4612C49.9089 84.3884 49.8179 84.2974 49.727 84.2246C49.636 84.1519 49.5268 84.0973 49.4177 84.0609C49.3085 84.0063 49.1993 83.9881 49.0719 83.9517C48.8354 83.8971 48.5989 83.8971 48.3623 83.9517C48.2532 83.9699 48.1258 84.0063 48.0166 84.0609C47.9075 84.1155 47.7983 84.17 47.7073 84.2246C47.6163 84.2974 47.5072 84.3702 47.4344 84.4612C47.3616 84.5521 47.2706 84.6431 47.2161 84.7341C47.1433 84.8251 47.0887 84.9342 47.0523 85.0434C46.9977 85.1526 46.9795 85.2617 46.9431 85.3891C46.9249 85.4983 46.9067 85.6256 46.9067 85.753C46.9067 85.8622 46.9249 85.9895 46.9431 86.1169C46.9613 86.2443 46.9977 86.3534 47.0523 86.4626C47.1069 86.5718 47.1615 86.681 47.2161 86.7719C47.2888 86.8629 47.3616 86.9721 47.4344 87.0449C47.5072 87.1176 47.6163 87.2086 47.7073 87.2632C47.7983 87.336 47.9075 87.3906 48.0166 87.427C48.1258 87.4815 48.235 87.4997 48.3623 87.5361C48.4715 87.5543 48.5989 87.5725 48.7262 87.5725C48.8354 87.5725 48.9628 87.5543 49.0901 87.5361C49.1993 87.5179 49.3267 87.4815 49.4358 87.427C49.545 87.3724 49.6542 87.3178 49.7452 87.2632C49.8361 87.1904 49.9453 87.1176 50.0181 87.0449C50.0909 86.9721 50.1818 86.8629 50.2546 86.7719C50.3274 86.681 50.382 86.5718 50.4184 86.4626C50.473 86.3534 50.5093 86.2443 50.5275 86.1169C50.5457 86.0077 50.5639 85.8804 50.5639 85.753C50.5457 85.6256 50.5275 85.4983 50.5094 85.3891Z" fill="white"/>
<path d="M63.4096 5.8224C62.0086 5.8224 60.8623 4.67611 60.8623 3.2751C60.8623 1.47379 59.3885 0 57.5872 0C55.7859 0 54.3121 1.47379 54.3121 3.2751C54.3121 4.67611 53.1658 5.8224 51.7648 5.8224C49.9635 5.8224 48.4897 7.29619 48.4897 9.0975C48.4897 10.8988 49.9635 12.3726 51.7648 12.3726C53.1658 12.3726 54.3121 13.5189 54.3121 14.9199C54.3121 16.7212 55.7859 18.195 57.5872 18.195C59.3885 18.195 60.8623 16.7212 60.8623 14.9199C60.8623 13.5189 62.0086 12.3726 63.4096 12.3726C65.2109 12.3726 66.6847 10.8988 66.6847 9.0975C66.6847 7.29619 65.2109 5.8224 63.4096 5.8224ZM57.5872 12.8275C56.9686 11.0989 55.5857 9.71613 53.8572 9.0975C55.5857 8.47887 56.9686 7.09605 57.5872 5.36752C58.2058 7.09605 59.5886 8.47887 61.3172 9.0975C59.5886 9.71613 58.2058 11.0989 57.5872 12.8275Z" fill="white"/>
<path d="M74.5449 21.4701C73.1439 21.4701 71.9976 20.3238 71.9976 18.9228C71.9976 17.1215 70.5238 15.6477 68.7225 15.6477C66.9212 15.6477 65.4474 17.1215 65.4474 18.9228C65.4474 20.3238 64.3011 21.4701 62.9001 21.4701C61.0988 21.4701 59.625 22.9439 59.625 24.7452C59.625 26.5465 61.0988 28.0203 62.9001 28.0203C64.3011 28.0203 65.4474 29.1666 65.4474 30.5676C65.4474 32.3689 66.9212 33.8427 68.7225 33.8427C70.5238 33.8427 71.9976 32.3689 71.9976 30.5676C71.9976 29.1666 73.1439 28.0203 74.5449 28.0203C76.3462 28.0203 77.82 26.5465 77.82 24.7452C77.82 22.9439 76.3462 21.4701 74.5449 21.4701ZM68.7225 28.4752C68.1039 26.7467 66.721 25.3638 64.9925 24.7452C66.721 24.1266 68.1039 22.7438 68.7225 21.0152C69.3411 22.7438 70.7239 24.1266 72.4525 24.7452C70.7239 25.382 69.3411 26.7467 68.7225 28.4752Z" fill="white"/>
<path d="M37.2997 23.6717L29.858 22.3616C29.1484 22.2343 28.4388 22.5436 28.0385 23.1258L25.0909 27.4562C22.6164 31.0952 18.8864 33.6971 14.6106 34.7888C13.628 35.0436 13.0458 36.0261 13.2823 36.9904C13.4825 37.8092 14.2285 38.3732 15.0472 38.3732C15.1928 38.3732 15.3384 38.355 15.5021 38.3187C20.6513 37.0268 25.1091 33.8973 28.093 29.5123L30.3856 26.1462L36.6811 27.2561C37.6636 27.438 38.6098 26.7648 38.7917 25.7823C38.9555 24.7998 38.2822 23.8536 37.2997 23.6717Z" fill="white"/>
<path d="M67.1031 69.4685C66.7029 69.1228 66.1934 68.959 65.6657 69.0318C64.5922 69.1592 62.0631 69.0864 61.0988 67.9947C60.5893 67.4307 60.4984 66.4663 60.8077 65.1563C61.9176 60.6439 62.2087 53.3477 62.2087 52.5108C62.2087 42.176 60.6803 34.2612 57.5144 28.3114C52.9292 19.6688 44.9962 15.2838 33.9155 15.2838C22.8347 15.2838 14.9017 19.6688 10.3166 28.3296C7.15063 34.2794 5.62225 42.1942 5.62225 52.529C5.62225 52.6018 5.69503 60.1891 6.9141 65.1745C7.24161 66.4845 7.13244 67.4307 6.64117 67.9947C5.60406 69.1592 2.9112 69.1228 2.05604 69.0318C1.54658 68.959 1.01892 69.1228 0.61863 69.4685C0.21834 69.8142 0 70.3055 0 70.8331C0 73.5806 1.58296 77.4015 8.89735 80.3127V91.3389C8.89735 92.3396 9.71613 93.1584 10.7169 93.1584H56.9867C57.9875 93.1584 58.8062 92.3396 58.8062 91.3389V80.3127C66.1206 77.4015 67.7036 73.5806 67.7036 70.8331C67.7218 70.3055 67.4852 69.8142 67.1031 69.4685ZM55.1854 89.5194H12.5545V87.5543H41.1571C42.1578 87.5543 42.9766 86.7356 42.9766 85.7348C42.9766 84.7341 42.1578 83.9153 41.1571 83.9153H12.5545C12.5545 83.8971 12.5545 78.1293 12.5545 78.1111C12.5545 76.237 14.0829 74.6905 15.9752 74.6905H28.0021C28.6753 77.2924 31.0589 79.2028 33.8609 79.2028C36.6629 79.2028 39.0283 77.2742 39.7197 74.6905H51.7648C53.6389 74.6905 55.1854 76.2189 55.1854 78.1111C55.1854 78.1475 55.1854 89.5012 55.1854 89.5194ZM30.0945 65.7203C23.417 64.01 18.759 57.9875 18.759 51.0734V45.3601C24.8544 43.5043 30.1673 39.7197 33.9155 34.5523L35.3347 34.807C43.2495 36.2081 48.9809 43.0494 48.9809 51.0916C48.9809 57.9875 44.323 64.01 37.6454 65.7385C36.8449 65.9387 36.2808 66.6665 36.2808 67.5035V73.1985C36.2808 74.5267 35.1891 75.6184 33.8609 75.6184C32.5327 75.6184 31.441 74.5267 31.441 73.1985V67.5035C31.4591 66.6483 30.8951 65.9205 30.0945 65.7203ZM58.6243 76.4372C57.8783 73.3622 55.0945 71.0515 51.7648 71.0515H39.9198V68.8317C47.4707 66.2662 52.6199 59.152 52.6199 51.0734C52.6199 41.2663 45.6149 32.9148 35.9533 31.2044L33.3878 30.7496C32.6782 30.6222 31.9686 30.9315 31.5683 31.5138L31.4046 31.7503C27.8747 36.9541 22.5618 40.6658 16.4665 42.1942C15.6659 42.3944 15.0837 43.1222 15.0837 43.9591V51.0552C15.0837 59.1338 20.2328 66.248 27.7838 68.8135V71.0333H15.9388C12.6273 71.0333 9.84349 73.3259 9.0793 76.419C7.13244 75.5274 5.0764 74.272 4.14846 72.6526C5.8224 72.5071 7.93302 71.9794 9.33403 70.3965C10.262 69.3593 11.2081 67.4489 10.4257 64.2829C9.31584 59.7888 9.22486 52.5836 9.22486 52.5108C9.22486 42.7946 10.6259 35.4257 13.4825 30.0218C17.4854 22.5618 24.163 18.9228 33.9155 18.9228C43.668 18.9228 50.3456 22.5618 54.3121 30.04C57.1869 35.4621 58.5697 42.8128 58.5697 52.529C58.5697 53.6753 58.224 60.3892 57.2779 64.3011C56.4955 67.4671 57.4416 69.3775 58.3695 70.4146C59.7706 71.9794 61.8812 72.5071 63.5551 72.6708C62.6272 74.2902 60.5529 75.5638 58.6243 76.4372Z" fill="white"/>
<path d="M30.3492 48.0712C29.6396 47.3616 28.4933 47.3616 27.7837 48.0712C27.4016 48.4533 26.874 48.6716 26.3281 48.6716C25.7823 48.6716 25.2546 48.4533 24.8725 48.0712C24.1629 47.3616 23.0166 47.3616 22.307 48.0712C21.5974 48.7808 21.5974 49.9271 22.307 50.6367C23.3805 51.7102 24.818 52.3106 26.3463 52.3106C27.8747 52.3106 29.2939 51.7102 30.3856 50.6367C31.0588 49.9271 31.0588 48.7808 30.3492 48.0712Z" fill="white"/>
<path d="M45.4511 48.0712C44.7415 47.3616 43.5952 47.3616 42.8856 48.0712C42.5035 48.4533 41.9759 48.6716 41.43 48.6716C40.8842 48.6716 40.3565 48.4533 39.9744 48.0712C39.2648 47.3616 38.1185 47.3616 37.4089 48.0712C36.6993 48.7808 36.6993 49.9271 37.4089 50.6367C38.4824 51.7102 39.9198 52.3106 41.4482 52.3106C42.9766 52.3106 44.3958 51.7102 45.4875 50.6367C46.1607 49.9271 46.1607 48.7808 45.4511 48.0712Z" fill="white"/>
<path d="M37.9002 58.4605C37.1906 57.7509 36.0443 57.7509 35.3347 58.4605C34.5341 59.2611 33.2241 59.2611 32.4235 58.4605C31.7139 57.7509 30.5676 57.7509 29.858 58.4605C29.1484 59.1702 29.1484 60.3164 29.858 61.026C30.9679 62.1359 32.4235 62.7 33.8973 62.7C35.3529 62.7 36.8085 62.1359 37.9366 61.026C38.6098 60.3164 38.6098 59.1702 37.9002 58.4605Z" fill="white"/>
</svg>
