<svg width="54" height="83" viewBox="0 0 54 83" fill="none" xmlns="http://www.w3.org/2000/svg">
<path d="M6.20455 33.4715L1.51802 39.7144C0.169134 41.513 -0.315085 43.8303 0.20372 46.0266L5.0286 66.5539V81.6165C5.0286 82.3774 5.65116 83 6.41208 83H24.3973C25.1582 83 25.7808 82.3774 25.7808 81.6165V69.6494L27.7349 67.2111C30.0522 64.3058 31.3147 60.7087 31.3147 57.0079C31.3147 56.9387 31.3147 56.8696 31.3147 56.8177C31.3147 56.7831 31.3147 56.7485 31.3147 56.7312C31.3147 55.6936 31.1936 54.656 30.9515 53.653C32.5079 52.3041 33.044 50.1078 32.2658 48.1883L31.7124 46.8048C31.6951 46.7529 31.6778 46.701 31.6432 46.6664C32.1102 45.5942 32.1102 44.3664 31.6778 43.2769C31.6605 43.225 31.6432 43.1904 31.6259 43.1386L30.3808 40.7694L50.3894 20.7435C55.1278 16.0051 55.1278 8.29222 50.3894 3.55381C45.651 -1.1846 37.9381 -1.1846 33.1997 3.55381L27.1815 9.57193L21.1634 3.55381C16.425 -1.1846 8.71211 -1.1846 3.9737 3.55381C-0.764714 8.29222 -0.764714 16.0051 3.9737 20.7435L13.658 30.4279H12.2919C9.90536 30.4279 7.63991 31.5519 6.20455 33.4715ZM25.5732 65.4817L23.3251 68.3006C23.1349 68.5427 23.0138 68.8539 23.0138 69.1652V80.233H7.79555V66.3983C7.79555 66.2945 7.77826 66.1908 7.76096 66.087L2.9015 45.404C2.57293 44.0032 2.88421 42.5333 3.74888 41.3919L8.43541 35.149C9.35196 33.9384 10.7873 33.2121 12.3091 33.2121H13.7445L13.6753 37.3625H11.9633C11.2024 37.3625 10.5798 37.9851 10.5798 38.746C10.5798 39.5069 11.2024 40.1295 11.9633 40.1295H13.6407L13.6062 41.9799L9.81889 44.5047C9.17903 44.9198 9.00609 45.7845 9.42114 46.4243C9.83618 47.0642 10.7009 47.2371 11.3407 46.8221L11.358 46.8048L13.5543 45.3348L13.5197 47.8078C13.5024 48.5687 14.1077 49.2086 14.8859 49.2086H14.9032C15.6641 49.2086 16.2694 48.6033 16.2866 47.8424L16.5633 31.8805C16.5633 31.8805 16.5633 31.8805 16.5633 31.8632C16.5633 31.8459 16.5633 31.8459 16.5633 31.8286C16.6152 30.2203 17.9468 28.9579 19.5551 29.0098C21.0769 29.0617 22.3048 30.2549 22.3739 31.7767L23.0484 45.6807C23.0657 45.9747 23.1694 46.2514 23.3424 46.4762L26.2823 50.1597C27.7349 51.9755 28.5477 54.241 28.565 56.5583C28.565 56.6102 28.565 56.6621 28.565 56.7139V56.8004C28.565 56.8523 28.565 56.9042 28.565 56.9733C28.5477 60.0862 27.4928 63.0779 25.5732 65.4817ZM28.9282 49.1394C29.153 49.0702 29.3605 48.9838 29.568 48.88L29.7064 49.2086C29.8793 49.6236 29.8966 50.0905 29.7928 50.5229C29.5161 50.0387 29.2395 49.589 28.9282 49.1394ZM29.1357 44.3491C29.447 45.2311 28.9973 46.1822 28.1154 46.4935C27.683 46.6491 27.2161 46.6145 26.8184 46.4243C26.8011 46.4243 26.8011 46.407 26.7838 46.407L25.7635 45.1273L25.6251 42.3949L26.1958 42.9656C26.7319 43.5017 27.6139 43.5017 28.15 42.9656L28.3229 42.7927L29.1357 44.3491ZM3.1782 12.1487C3.1782 6.96062 7.38051 2.75831 12.5686 2.75831C15.0588 2.75831 17.4453 3.74404 19.2092 5.50797L26.2131 12.5118C26.7492 13.0479 27.6312 13.0479 28.1673 12.5118L35.1711 5.50797C38.8546 1.85905 44.8036 1.89363 48.4525 5.57714C52.0668 9.24336 52.0668 15.1231 48.4525 18.7894L27.7003 39.5242C27.7003 39.5242 27.7003 39.5242 27.683 39.5415L27.1815 40.043L25.4176 38.2791L25.089 31.673C24.9334 28.5429 22.2702 26.1218 19.1228 26.2774C17.6355 26.3466 16.2348 27.0037 15.2317 28.0932L5.91056 18.7721C4.16392 17.0254 3.1609 14.6389 3.1782 12.1487Z" fill="white"/>
<path d="M29.153 35.149C29.5161 35.149 29.8793 35.0107 30.1387 34.7513L31.5222 33.3678C32.0756 32.8317 32.0756 31.9497 31.5395 31.4136C31.0034 30.8602 30.1214 30.8602 29.5853 31.3963L29.568 31.4136L28.1845 32.7971C27.6484 33.3332 27.6484 34.2152 28.1845 34.7513C28.4267 34.9934 28.7725 35.149 29.153 35.149Z" fill="white"/>
<path d="M33.9951 30.3068C34.3583 30.3068 34.7215 30.1685 34.9809 29.9091L38.4396 26.4504C38.993 25.9143 38.993 25.0323 38.4569 24.4962C37.9208 23.9428 37.0388 23.9428 36.5027 24.4789L36.4854 24.4962L33.0267 27.9549C32.4906 28.491 32.4906 29.373 33.0267 29.9091C33.2688 30.1512 33.6147 30.3068 33.9951 30.3068Z" fill="white"/>
</svg>
