<svg width="78" height="70" viewBox="0 0 78 70" fill="none" xmlns="http://www.w3.org/2000/svg">
<path d="M77.7844 55.0479L77.4805 53.4521C77.2981 52.4338 76.4014 51.6891 75.3527 51.6891C75.2159 51.6891 75.0944 51.7043 74.9576 51.7195L68.9087 52.829L71.6444 51.0052C72.3587 50.5188 72.7234 49.6677 72.5714 48.8166C72.5258 48.5887 72.4499 48.3607 72.3283 48.1479L71.5076 46.6889C71.2188 46.1873 70.7325 45.8074 70.1853 45.6554C69.9118 45.5794 69.623 45.5642 69.3494 45.6098C69.6534 43.9228 69.8054 42.2054 69.8054 40.4576C69.8054 39.6825 69.3342 39.0138 68.6655 38.725C69.5318 36.6581 69.5926 34.2872 68.7415 32.1138C68.6655 31.9314 68.5743 31.7794 68.4375 31.6427C68.3007 31.5059 68.1488 31.3995 67.9664 31.3387C66.9329 30.9284 65.8538 30.7156 64.7444 30.7156C64.6076 30.7156 64.4556 30.7156 64.3188 30.7308C64.1668 27.5543 61.5224 25.0162 58.3155 25.0162C57.89 25.0162 57.4796 25.0618 57.0845 25.1378C57.358 23.4812 57.1909 21.7486 56.5525 20.1224C56.4765 19.94 56.3854 19.7881 56.2334 19.6361C56.0966 19.4993 55.9446 19.3929 55.7622 19.3169C54.6528 18.8762 53.4825 18.6482 52.297 18.6482C50.5036 18.6482 48.7863 19.1497 47.2968 20.092C46.7497 18.5266 45.8682 17.0524 44.6067 15.7909C44.242 15.4262 43.7556 15.2286 43.2389 15.2286C42.7222 15.2286 42.2358 15.4262 41.8711 15.7909L36.3541 21.3231C35.3358 20.4112 33.9832 19.8641 32.5242 19.8641C32.1898 19.8641 31.8554 19.8945 31.5363 19.9552C30.3508 20.168 29.2566 20.7456 28.4207 21.5967C27.3416 21.0799 26.1105 20.8975 24.9251 21.1103C24.6667 21.1559 24.4083 21.2167 24.1652 21.2927V17.0372C24.1652 14.1039 21.8094 11.7026 18.8914 11.657V9.24051C19.7881 9.08853 20.472 8.31342 20.472 7.37113V1.89978C20.472 0.8511 19.6209 0 18.5722 0H9.3013C8.25263 0 7.40153 0.8511 7.40153 1.89978V7.37113C7.40153 8.31342 8.08545 9.08853 8.98214 9.24051V11.657C6.06409 11.7026 3.70836 14.1039 3.70836 17.0372V50.3061C1.41343 52.3578 0 55.2303 0 58.3915C0 64.6228 5.47136 69.699 12.2042 69.699L57.8292 69.6838C59.3794 69.6838 60.8536 68.9999 61.8415 67.7992C62.8142 66.6441 63.2245 65.1243 62.9814 63.6501L72.1003 65.2915C72.2219 65.3067 72.3587 65.3219 72.4803 65.3219C72.9362 65.3219 73.377 65.1851 73.7417 64.9115C74.2129 64.5772 74.532 64.0452 74.6232 63.4677L74.8664 61.8111C74.8968 61.5679 74.8968 61.34 74.8512 61.0968C74.6992 60.2457 74.0457 59.577 73.2098 59.3794L70.003 58.6499L76.0366 57.5404C76.599 57.434 77.1005 57.1149 77.4349 56.6437C77.754 56.1878 77.8908 55.6254 77.7844 55.0479ZM64.7444 32.9801C65.4283 32.9801 66.1122 33.0865 66.7505 33.2993C67.3281 35.0623 67.1153 36.962 66.2034 38.5427H63.1334L64.106 37.5548C64.5468 37.114 64.5468 36.3845 64.106 35.9438C63.6653 35.503 62.9358 35.503 62.495 35.9438L61.9783 36.4605C61.7351 35.655 61.3096 34.9407 60.7472 34.3631C61.9023 33.4817 63.2853 32.9801 64.7444 32.9801ZM58.3155 27.2808C60.3673 27.2808 62.0543 28.9678 62.0543 31.0195C62.0543 31.0651 62.0543 31.0955 62.0543 31.1411C60.8536 31.5363 59.7442 32.1898 58.8019 33.0713C58.6499 33.0105 58.4979 32.9649 58.3459 32.9193C58.0116 31.1107 56.7957 29.6669 55.1999 28.9982C55.8534 27.9647 57.0085 27.2808 58.3155 27.2808ZM52.297 20.9279C53.0721 20.9279 53.8321 21.0495 54.5616 21.3079C55.1543 23.0557 55.0327 24.9403 54.2728 26.5665C53.6497 27.1288 53.1481 27.8127 52.8138 28.5878C52.6162 28.603 52.4034 28.6182 52.2058 28.6638C51.3092 28.8158 50.4733 29.211 49.7893 29.7733C49.5462 29.3325 49.2574 28.9374 48.923 28.5726L51.5371 25.9585C51.9779 25.5178 51.9779 24.7883 51.5371 24.3475C51.0964 23.9068 50.3669 23.9068 49.9261 24.3475L47.0689 27.2048C46.5217 26.9464 45.9442 26.764 45.3211 26.6881C45.5946 25.3354 46.2481 24.0436 47.2664 23.0253C48.6191 21.6726 50.3973 20.9279 52.297 20.9279ZM43.5581 38.5427H42.5702C42.403 38.1171 41.9926 37.8131 41.5063 37.8131C41.02 37.8131 40.6096 38.1171 40.4424 38.5427H39.2874C39.5609 38.1019 39.5001 37.5244 39.1202 37.1444C38.6794 36.7037 37.9499 36.7037 37.5092 37.1444L36.4301 38.2235C36.3389 38.3147 36.2629 38.4363 36.2021 38.5427H33.892C33.0257 37.2052 32.4938 35.6398 32.433 33.9376H50.5188C50.458 35.6246 49.9261 37.2052 49.0598 38.5427H46.6433C46.5825 38.4211 46.5217 38.3147 46.4153 38.2235L45.3363 37.1444C44.8955 36.7037 44.166 36.7037 43.7252 37.1444C43.3453 37.5244 43.2845 38.1171 43.5581 38.5427ZM40.9136 31.6731C41.3391 30.0773 42.7982 28.907 44.5156 28.907C46.2329 28.907 47.692 30.0773 48.1175 31.6731H40.9136ZM43.2389 17.6603C44.318 18.8306 45.0475 20.2288 45.397 21.6878C44.8195 22.3262 44.3332 23.0253 43.9532 23.77C43.786 23.6636 43.5733 23.6028 43.3605 23.6028H41.8407C41.2175 23.6028 40.7008 24.1196 40.7008 24.7427C40.7008 25.3658 41.2175 25.8825 41.8407 25.8825H43.1781C43.1021 26.2017 43.0413 26.5209 42.9957 26.84C42.5398 26.9616 42.1142 27.1288 41.7039 27.3416C40.944 26.0345 39.6825 25.0466 38.1931 24.6667C38.1931 24.6667 38.1931 24.6667 38.1931 24.6515C38.1019 24.1348 37.9499 23.6484 37.7372 23.1925L43.2389 17.6603ZM22.6301 27.9343C22.5693 27.7519 22.5085 27.5543 22.4781 27.3568C22.1438 25.4722 23.4204 23.6788 25.305 23.3444C25.5026 23.3141 25.7002 23.2989 25.9129 23.2989C26.6577 23.2989 27.3872 23.542 27.9951 23.998C28.2535 24.1803 28.5574 24.2563 28.8766 24.2107C29.1806 24.15 29.4541 23.9828 29.6365 23.7244C30.1684 22.9189 30.9891 22.387 31.9466 22.2198C32.1442 22.1894 32.3418 22.1742 32.5546 22.1742C34.2416 22.1742 35.6854 23.3748 35.9742 25.0466C36.0046 25.2442 36.0198 25.4418 36.0198 25.6394C36.0198 26.2321 36.4757 26.7184 37.0532 26.7792C38.3299 26.8856 39.409 27.6911 39.9105 28.8158C39.2418 29.6213 38.7706 30.6092 38.5882 31.6883H32.0834C31.2779 31.6883 30.5788 32.1898 30.29 32.8889C28.8614 31.9162 27.1744 31.3843 25.4114 31.3843C24.3019 31.3843 23.2229 31.5971 22.1894 32.0074C22.007 32.0834 21.855 32.1746 21.7182 32.3114C21.5815 32.4482 21.4751 32.6002 21.4143 32.7825C21.1559 33.4513 20.9735 34.12 20.8823 34.8039C20.472 34.3327 20.1832 33.7552 20.0768 33.1169C19.8033 31.5667 20.624 30.0317 22.0374 29.3781C22.5693 29.1046 22.8277 28.4966 22.6301 27.9343ZM26.0345 38.2387L26.3385 38.5578H23.6028C22.9949 37.1292 22.8885 35.503 23.39 33.9832C24.0436 33.7704 24.7123 33.664 25.3962 33.664C27.1136 33.664 28.7246 34.3328 29.9405 35.5486C30.1077 35.7158 30.2596 35.883 30.3964 36.0501C30.594 36.9316 30.8828 37.7675 31.2627 38.5427H29.5453L27.6303 36.6277C27.1896 36.1869 26.4601 36.1869 26.0193 36.6277C25.5938 37.0684 25.5938 37.7979 26.0345 38.2387ZM21.1711 38.5427H17.1132C17.2956 37.4332 17.9643 36.4909 18.8762 35.9438C19.4233 36.6733 20.1376 37.266 20.9583 37.6612C21.0191 37.9651 21.0951 38.2539 21.1711 38.5427ZM9.68126 2.26453H18.1923V6.97598H9.68126V2.26453ZM16.6116 9.27091V11.657H11.2467V9.27091H16.6116ZM5.9729 21.6574H13.3744C13.9976 21.6574 14.5143 21.1407 14.5143 20.5176C14.5143 19.8945 13.9976 19.3777 13.3744 19.3777H5.9729V17.0372C5.9729 15.3198 7.35593 13.9368 9.05813 13.9368H18.785C20.4872 13.9368 21.8702 15.335 21.8702 17.0372V19.3777H19.7425C19.1193 19.3777 18.6026 19.8945 18.6026 20.5176C18.6026 21.1407 19.1193 21.6574 19.7425 21.6574H21.8702V22.6757C20.5632 23.9524 19.8793 25.837 20.2136 27.7671V27.7823C18.3898 29.0438 17.4171 31.2627 17.7971 33.512C17.8123 33.6488 17.8427 33.7704 17.8731 33.892C17.3108 34.2112 16.794 34.6063 16.3533 35.0927H5.9729V21.6574ZM5.9729 37.3572H15.0614C14.9398 37.7371 14.8486 38.1475 14.8183 38.5578H14.6207C13.572 38.5578 12.7209 39.4089 12.7209 40.4576C12.7209 42.2662 12.8881 44.0444 13.2224 45.777C12.8881 45.7466 12.5537 45.7314 12.2194 45.7314C10.8363 45.7314 9.52928 45.9442 8.52619 46.3545C6.99118 46.9625 6.56563 47.8288 6.47444 48.4215C6.30726 48.4975 6.15527 48.5887 5.98809 48.6799C5.9729 48.6799 5.9729 37.3572 5.9729 37.3572ZM20.4112 51.3547C20.8215 51.6891 21.0799 51.9627 21.2167 52.1602C21.2015 52.1602 21.1863 52.1602 21.1711 52.1602C20.5328 52.1602 19.3625 51.9019 18.0555 51.1724C17.5691 50.8988 17.1132 50.5948 16.7484 50.2909C16.3229 49.9261 15.6997 49.9261 15.2742 50.2909C14.9094 50.5948 14.4535 50.914 13.9672 51.1724C12.6449 51.9019 11.4898 52.1602 10.8515 52.1602C10.8363 52.1602 10.8211 52.1602 10.8059 52.1602C10.9579 51.9627 11.2011 51.6739 11.6114 51.3547C11.9762 51.066 12.1282 50.5948 11.9914 50.1541C11.8698 49.7133 11.4898 49.3942 11.0339 49.3334C9.92443 49.1966 9.22531 48.923 8.89095 48.7103C9.3013 48.4519 10.35 48.0111 12.2194 48.0111C13.7696 48.0111 14.9094 48.3455 15.4566 48.6495C15.8061 48.847 16.2317 48.847 16.566 48.6495C17.1132 48.3455 18.253 48.0111 19.8033 48.0111C21.6878 48.0111 22.7213 48.4519 23.1317 48.7103C22.7973 48.923 22.0982 49.1966 20.9887 49.3334C20.5328 49.3942 20.1528 49.7133 20.0312 50.1541C19.8945 50.5948 20.0464 51.066 20.4112 51.3547ZM18.1315 65.2307L18.1771 65.4435C18.3138 66.173 18.6026 66.8417 18.9978 67.4344H12.2042C6.73281 67.4344 2.27973 63.3765 2.27973 58.4067C2.27973 55.0023 4.36189 52.0387 7.41673 50.4884C7.76628 50.7468 8.20703 50.9748 8.72377 51.1572C8.511 51.5067 8.37421 51.8867 8.34382 52.2818C8.29822 52.8138 8.4654 53.3001 8.79976 53.6801C9.24051 54.1816 9.92443 54.44 10.8363 54.44C12.037 54.44 13.6176 53.9688 15.0614 53.1633C15.3958 52.9809 15.7149 52.7834 16.0037 52.5858C16.2925 52.7834 16.6116 52.9809 16.946 53.1633C18.3898 53.9688 19.9704 54.44 21.1711 54.44C22.0678 54.44 22.7517 54.1816 23.2077 53.6801C23.542 53.3001 23.7092 52.7986 23.6636 52.2818C23.6332 51.8867 23.4812 51.5067 23.2837 51.1572C23.8004 50.9748 24.2411 50.7468 24.5907 50.4884C27.0224 51.7043 28.831 53.832 29.4693 56.3549L21.4143 59.425C19.0434 60.3065 17.6603 62.7534 18.1315 65.2307ZM60.0937 66.3554C59.5314 67.0241 58.7107 67.4192 57.8292 67.4192H56.6285L55.8838 63.3765C55.7622 62.7534 55.1695 62.343 54.5616 62.4646C53.9384 62.5862 53.5281 63.1789 53.6497 63.7869L54.3184 67.404H50.3973L49.8957 64.6684C49.7741 64.0452 49.1814 63.6349 48.5735 63.7565C47.9503 63.8781 47.54 64.4708 47.6616 65.0787L48.0871 67.3888H38.9682L38.2843 63.6805C38.1627 63.0574 37.57 62.647 36.962 62.7686C36.3389 62.8902 35.9286 63.4829 36.0501 64.0908L36.6581 67.3888H23.3444C21.9158 67.3888 20.7 66.3858 20.4416 64.9875L20.396 64.7748C20.1376 63.3765 20.9127 62.0087 22.2502 61.5071L26.7336 59.8049L27.068 61.6135C27.1744 62.1607 27.6455 62.5406 28.1927 62.5406C28.2687 62.5406 28.3295 62.5406 28.4055 62.5254C29.0286 62.4038 29.4389 61.8111 29.3173 61.2032L28.907 58.9994L35.5638 56.4765C36.1565 56.2486 36.4453 55.595 36.2173 55.0023C35.9894 54.4096 35.3358 54.1208 34.7431 54.3488L31.6427 55.519C30.7764 52.449 28.5422 49.8805 25.5938 48.4063C25.5026 47.8136 25.077 46.9473 23.542 46.3393C22.5389 45.9442 21.2167 45.7162 19.8489 45.7162C18.9066 45.7162 17.9947 45.8226 17.1892 46.005V45.321C17.1892 44.6979 16.6724 44.1812 16.0493 44.1812C15.7757 44.1812 15.5326 44.2724 15.3502 44.4244C15.1678 43.2389 15.0766 42.023 15.0462 40.8072H52.1299C52.753 40.8072 53.2697 40.2904 53.2697 39.6673C53.2697 39.0442 52.753 38.5275 52.1299 38.5275H51.6587C52.3882 37.038 52.7986 35.351 52.7986 33.588C52.7986 32.585 52.0235 31.7491 51.0508 31.6579C51.4763 31.2627 52.0083 30.9891 52.601 30.8828C52.7682 30.8524 52.9506 30.8372 53.1329 30.8372C54.6072 30.8372 55.8534 31.8858 56.1118 33.3449C56.1422 33.512 56.1574 33.6792 56.1574 33.8616C56.1574 34.4543 56.6133 34.9407 57.1909 35.0015C58.5587 35.1231 59.6682 36.1413 59.8961 37.494C59.9569 37.8587 59.9569 38.2083 59.8809 38.5427H58.6651C58.042 38.5427 57.5252 39.0594 57.5252 39.6825C57.5252 40.3056 58.042 40.8224 58.6651 40.8224H67.5256C67.4952 42.9197 67.2217 44.9563 66.7201 46.9321L60.5497 50.5796C60.1697 49.2574 59.2882 48.1479 58.0876 47.4792C56.7349 46.7193 55.1239 46.5977 53.6649 47.16L40.944 51.9931C40.3512 52.221 40.0625 52.8746 40.2905 53.4673C40.5184 54.06 41.1719 54.3488 41.7647 54.1208L43.4365 53.4825L43.9532 56.2942C44.0596 56.8413 44.5308 57.2212 45.0779 57.2212C45.1539 57.2212 45.2147 57.2212 45.2907 57.2061C45.9138 57.0845 46.3241 56.4917 46.2026 55.8838L45.6098 52.6618L54.4856 49.2878C55.3063 48.9686 56.2182 49.0446 56.9933 49.4702C57.7532 49.8957 58.2851 50.6404 58.4523 51.4915L60.7624 63.9389C60.884 64.8052 60.656 65.6866 60.0937 66.3554ZM64.1668 57.434C63.6349 57.5252 63.2397 57.9964 63.2397 58.5283C63.2245 59.0754 63.6045 59.5466 64.1212 59.6682L72.6018 61.6135L72.3891 63.0422L62.5558 61.2792L61.0208 52.9809L69.5926 47.9199L70.3069 49.1814L63.0726 53.9992C62.6166 54.3032 62.4494 54.8807 62.647 55.3823C62.8446 55.8838 63.3765 56.1726 63.9085 56.0814L75.2615 53.9992L75.5199 55.3671L64.1668 57.434Z" fill="white"/>
</svg>
