<svg width="78" height="80" viewBox="0 0 78 80" fill="none" xmlns="http://www.w3.org/2000/svg">
<path d="M10.322 62.0879C7.24189 63.2065 5.18311 66.1244 5.18311 69.4153V79.1094H7.77686V69.399C7.77686 67.2106 9.15478 65.2653 11.2136 64.5196L14.6989 63.2551L13.8235 60.8073L10.322 62.0879Z" fill="white"/>
<path d="M77.1274 50.7402L73.2692 48.6328L71.1618 44.7746C70.8214 44.1424 70.027 43.9154 69.3948 44.2558C69.1841 44.3693 69.0057 44.5476 68.876 44.7746L66.7848 48.6328L62.9266 50.7402C62.2944 51.0807 62.0674 51.875 62.4079 52.5072C62.5214 52.718 62.6997 52.8963 62.9266 53.026L66.7848 55.1334L68.8923 58.9916C69.2327 59.6238 70.027 59.8508 70.6593 59.5103C70.87 59.3969 71.0483 59.2185 71.178 58.9916L73.2854 55.1334L77.1436 53.026C77.7759 52.6855 78.0028 51.8912 77.6624 51.259C77.5327 51.032 77.3544 50.8537 77.1274 50.7402ZM71.6968 53.026C71.486 53.1394 71.3077 53.3178 71.178 53.5447L70.027 55.6521L68.876 53.5447C68.7626 53.334 68.5843 53.1557 68.3573 53.026L66.2499 51.875L68.3573 50.724C68.568 50.6105 68.7464 50.4322 68.876 50.2053L70.027 48.0978L71.178 50.2053C71.2915 50.416 71.4698 50.5943 71.6968 50.724L73.8042 51.875L71.6968 53.026Z" fill="white"/>
<path d="M14.8774 6.64683L11.0192 4.53941L8.91179 0.681206C8.57136 0.0489796 7.77702 -0.177974 7.14479 0.162456C6.93405 0.275933 6.75573 0.454253 6.62604 0.681206L4.53483 4.53941L0.676629 6.64683C0.044402 6.98726 -0.182551 7.7816 0.157879 8.41382C0.271355 8.62457 0.449676 8.80289 0.676629 8.93257L4.53483 11.0238L6.64225 14.882C6.98268 15.5142 7.77702 15.7412 8.40925 15.4007C8.61999 15.2873 8.79831 15.1089 8.928 14.882L11.0192 11.0238L14.8774 8.91636C15.5096 8.57593 15.7366 7.7816 15.3962 7.14937C15.2827 6.93863 15.1044 6.76031 14.8774 6.64683ZM9.44675 8.93257C9.236 9.04605 9.05768 9.22437 8.928 9.45132L7.77702 11.5587L6.62604 9.45132C6.51257 9.24058 6.33425 9.06226 6.10729 8.93257L3.99987 7.7816L6.10729 6.63062C6.31804 6.51714 6.49636 6.33882 6.62604 6.11187L7.77702 4.00445L8.928 6.11187C9.04147 6.32261 9.21979 6.50093 9.44675 6.63062L11.5542 7.7816L9.44675 8.93257Z" fill="white"/>
<path d="M64.2235 10.8613L66.8173 12.2879L68.2438 14.8817C68.5843 15.5139 69.3786 15.7408 70.0108 15.4004C70.2216 15.2869 70.3999 15.1086 70.5296 14.8817L71.9561 12.2879L74.5499 10.8613C75.1821 10.5209 75.4091 9.72658 75.0686 9.09435C74.9552 8.88361 74.7768 8.70529 74.5499 8.5756L71.9561 7.14904L70.5296 4.55529C70.1891 3.92306 69.3948 3.69611 68.7626 4.03654C68.5518 4.15002 68.3735 4.32834 68.2438 4.55529L66.8173 7.14904L64.2235 8.5756C63.5913 8.91603 63.3643 9.71037 63.7048 10.3426C63.8182 10.5695 63.9966 10.7479 64.2235 10.8613ZM68.3897 9.25646C68.6005 9.14299 68.7788 8.96467 68.9085 8.73771L69.3786 7.87853L69.8487 8.73771C69.9622 8.94845 70.1405 9.12677 70.3675 9.25646L71.2266 9.72658L70.3675 10.1967C70.1567 10.3102 69.9784 10.4885 69.8487 10.7154L69.3786 11.5746L68.9085 10.7154C68.795 10.5047 68.6167 10.3264 68.3897 10.1967L67.5305 9.72658L68.3897 9.25646Z" fill="white"/>
<path d="M7.29069 44.7097C7.63112 45.342 8.42546 45.5689 9.05768 45.2285C9.26843 45.115 9.44675 44.9367 9.57643 44.7097L11.003 42.116L13.5967 40.6894C14.229 40.349 14.4559 39.5547 14.1155 38.9224C14.002 38.7117 13.8237 38.5334 13.5967 38.4037L11.003 36.9771L9.57643 34.3834C9.236 33.7511 8.44167 33.5242 7.80944 33.8646C7.5987 33.9781 7.42038 34.1564 7.29069 34.3834L5.86413 36.9771L3.27038 38.4037C2.63815 38.7441 2.4112 39.5384 2.75163 40.1707C2.86511 40.3814 3.04343 40.5597 3.27038 40.6894L5.86413 42.116L7.29069 44.7097ZM7.43659 39.0845C7.64733 38.9711 7.82565 38.7927 7.95534 38.5658L8.42546 37.7066L8.89557 38.5658C9.00905 38.7765 9.18737 38.9548 9.41432 39.0845L10.2735 39.5546L9.41432 40.0248C9.20358 40.1382 9.02526 40.3166 8.89557 40.5435L8.42546 41.4027L7.95534 40.5435C7.84186 40.3328 7.66354 40.1545 7.43659 40.0248L6.57741 39.5546L7.43659 39.0845Z" fill="white"/>
<path d="M67.4819 62.0879L49.2608 55.5225L47.3642 47.9844L50.8819 45.7311C53.119 44.3045 54.4646 41.8404 54.4646 39.1818V37.6094H56.4099C56.6206 37.6094 56.8476 37.5932 57.0583 37.5607V55.7656H59.6521V36.3125H59.5872C60.4626 35.4533 60.9489 34.2861 60.9489 33.0703V27.8828C60.9489 26.6994 60.4788 25.5484 59.6521 24.7055V17.5078C59.6521 15.8543 59.4251 14.2008 58.955 12.6121L56.4585 13.3416C56.8476 14.7033 57.0583 16.0975 57.0583 17.524V23.36H55.113C46.8778 23.3438 40.2151 16.6811 40.1989 8.4459V2.59375H42.1442C47.8505 2.57754 53.0542 5.81973 55.5345 10.9424L57.8688 9.80762C54.9347 3.80957 48.8231 0 42.1442 0H35.6599C25.9981 0.0162109 18.1683 7.84609 18.1521 17.5078V24.7055C17.3253 25.5484 16.8552 26.6994 16.8552 27.8828V33.0703C16.8552 34.2861 17.3415 35.4533 18.2169 36.3125H18.1521V55.7656H20.7458V37.5607C20.9565 37.5932 21.1835 37.6094 21.3942 37.6094H23.3396V39.2305C23.3396 41.8891 24.7013 44.3693 26.9384 45.7959L30.4237 48.0168L28.5433 55.5225L16.4175 59.8832L17.2929 62.3311L27.7813 58.5539L27.2626 60.6451C27.1329 61.1477 27.3274 61.6826 27.7489 61.9906L38.1239 69.7719C38.5778 70.1123 39.2263 70.1123 39.6802 69.7719L50.0552 61.9906C50.4767 61.6826 50.655 61.1477 50.5415 60.6451L50.0228 58.5539L66.5903 64.5195C68.6491 65.2652 70.0108 67.2105 70.0271 69.399V79.1094H72.6208V69.399C72.6208 66.1244 70.562 63.1902 67.4819 62.0879ZM54.4646 25.9375H56.4099C57.4798 25.9375 58.3552 26.8129 58.3552 27.8828V33.0703C58.3552 34.1402 57.4798 35.0156 56.4099 35.0156H54.4646V25.9375ZM23.3396 35.0156H21.3942C20.3243 35.0156 19.4489 34.1402 19.4489 33.0703V27.8828C19.4489 26.8129 20.3243 25.9375 21.3942 25.9375H23.3396V35.0156ZM22.6911 23.3438H20.7458V17.5078C20.762 9.27266 27.4247 2.60996 35.6599 2.59375H37.6052V8.42969C37.589 16.6648 30.9263 23.3275 22.6911 23.3438ZM28.3325 43.6074C26.8249 42.651 25.9333 41.0137 25.9333 39.2305V25.6295C31.7692 24.5109 36.6487 20.5393 38.9021 15.0438C41.1554 20.5393 46.0349 24.5271 51.8708 25.6295V39.1818C51.8708 40.9488 50.9792 42.6023 49.4878 43.5426L41.6903 48.5355C39.9882 49.6217 37.8159 49.6217 36.1138 48.5518L28.3325 43.6074ZM38.9021 67.1133L30.0022 60.4344L32.7419 49.492L34.7196 50.7564C37.281 52.3775 40.5394 52.3775 43.1007 50.7402L45.0784 49.4758L47.8181 60.4506L38.9021 67.1133Z" fill="white"/>
<path d="M46.6831 39.5547V38.9062H44.0894V39.5547C44.0894 40.6246 43.214 41.5 42.144 41.5H35.6597C34.5897 41.5 33.7144 40.6246 33.7144 39.5547V38.9062H31.1206V39.5547C31.1206 42.0674 33.147 44.0938 35.6597 44.0938H42.144C44.6567 44.0938 46.6831 42.0674 46.6831 39.5547Z" fill="white"/>
</svg>
