<svg width="485" height="614" viewBox="0 0 485 614" fill="none" xmlns="http://www.w3.org/2000/svg">
<rect width="485" height="613.701" rx="10" fill="#127D7A"/>
<path d="M41.075 57.8352V71.8352H39.855L30.855 60.4752V71.8352H29.375V57.8352H30.595L39.615 69.1952V57.8352H41.075ZM49.6445 71.9352C48.6312 71.9352 47.7178 71.7085 46.9045 71.2552C46.0912 70.7885 45.4512 70.1485 44.9845 69.3352C44.5178 68.5219 44.2845 67.6019 44.2845 66.5752C44.2845 65.5485 44.5178 64.6285 44.9845 63.8152C45.4512 63.0019 46.0912 62.3685 46.9045 61.9152C47.7178 61.4619 48.6312 61.2352 49.6445 61.2352C50.6578 61.2352 51.5712 61.4619 52.3845 61.9152C53.1978 62.3685 53.8312 63.0019 54.2845 63.8152C54.7512 64.6285 54.9845 65.5485 54.9845 66.5752C54.9845 67.6019 54.7512 68.5219 54.2845 69.3352C53.8312 70.1485 53.1978 70.7885 52.3845 71.2552C51.5712 71.7085 50.6578 71.9352 49.6445 71.9352ZM49.6445 70.6752C50.3912 70.6752 51.0578 70.5085 51.6445 70.1752C52.2445 69.8285 52.7112 69.3419 53.0445 68.7152C53.3778 68.0885 53.5445 67.3752 53.5445 66.5752C53.5445 65.7752 53.3778 65.0619 53.0445 64.4352C52.7112 63.8085 52.2445 63.3285 51.6445 62.9952C51.0578 62.6485 50.3912 62.4752 49.6445 62.4752C48.8978 62.4752 48.2245 62.6485 47.6245 62.9952C47.0378 63.3285 46.5712 63.8085 46.2245 64.4352C45.8912 65.0619 45.7245 65.7752 45.7245 66.5752C45.7245 67.3752 45.8912 68.0885 46.2245 68.7152C46.5712 69.3419 47.0378 69.8285 47.6245 70.1752C48.2245 70.5085 48.8978 70.6752 49.6445 70.6752ZM71.0036 61.2352C72.3236 61.2352 73.3569 61.6152 74.1036 62.3752C74.8636 63.1352 75.2436 64.2552 75.2436 65.7352V71.8352H73.8236V65.8752C73.8236 64.7819 73.5569 63.9485 73.0236 63.3752C72.5036 62.8019 71.7636 62.5152 70.8036 62.5152C69.7102 62.5152 68.8502 62.8552 68.2236 63.5352C67.5969 64.2019 67.2836 65.1285 67.2836 66.3152V71.8352H65.8636V65.8752C65.8636 64.7819 65.5969 63.9485 65.0636 63.3752C64.5436 62.8019 63.7969 62.5152 62.8236 62.5152C61.7436 62.5152 60.8836 62.8552 60.2436 63.5352C59.6169 64.2019 59.3036 65.1285 59.3036 66.3152V71.8352H57.8836V61.3152H59.2436V63.2352C59.6169 62.5952 60.1369 62.1019 60.8036 61.7552C61.4702 61.4085 62.2369 61.2352 63.1036 61.2352C63.9836 61.2352 64.7436 61.4219 65.3836 61.7952C66.0369 62.1685 66.5236 62.7219 66.8436 63.4552C67.2302 62.7619 67.7836 62.2219 68.5036 61.8352C69.2369 61.4352 70.0702 61.2352 71.0036 61.2352ZM88.2936 67.0152H79.4936C79.5736 68.1085 79.9936 68.9952 80.7536 69.6752C81.5136 70.3419 82.4736 70.6752 83.6336 70.6752C84.2869 70.6752 84.8869 70.5619 85.4336 70.3352C85.9802 70.0952 86.4536 69.7485 86.8536 69.2952L87.6536 70.2152C87.1869 70.7752 86.6002 71.2019 85.8936 71.4952C85.2002 71.7885 84.4336 71.9352 83.5936 71.9352C82.5136 71.9352 81.5536 71.7085 80.7136 71.2552C79.8869 70.7885 79.2402 70.1485 78.7736 69.3352C78.3069 68.5219 78.0736 67.6019 78.0736 66.5752C78.0736 65.5485 78.2936 64.6285 78.7336 63.8152C79.1869 63.0019 79.8002 62.3685 80.5736 61.9152C81.3602 61.4619 82.2402 61.2352 83.2136 61.2352C84.1869 61.2352 85.0602 61.4619 85.8336 61.9152C86.6069 62.3685 87.2136 63.0019 87.6536 63.8152C88.0936 64.6152 88.3136 65.5352 88.3136 66.5752L88.2936 67.0152ZM83.2136 62.4552C82.2002 62.4552 81.3469 62.7819 80.6536 63.4352C79.9736 64.0752 79.5869 64.9152 79.4936 65.9552H86.9536C86.8602 64.9152 86.4669 64.0752 85.7736 63.4352C85.0936 62.7819 84.2402 62.4552 83.2136 62.4552Z" fill="white"/>
<path d="M32.095 204.073H27.175V202.793H38.495V204.073H33.575V216.793H32.095V204.073ZM48.6256 211.973H39.8256C39.9056 213.067 40.3256 213.953 41.0856 214.633C41.8456 215.3 42.8056 215.633 43.9656 215.633C44.6189 215.633 45.2189 215.52 45.7656 215.293C46.3123 215.053 46.7856 214.707 47.1856 214.253L47.9856 215.173C47.5189 215.733 46.9323 216.16 46.2256 216.453C45.5323 216.747 44.7656 216.893 43.9256 216.893C42.8456 216.893 41.8856 216.667 41.0456 216.213C40.2189 215.747 39.5723 215.107 39.1056 214.293C38.6389 213.48 38.4056 212.56 38.4056 211.533C38.4056 210.507 38.6256 209.587 39.0656 208.773C39.5189 207.96 40.1323 207.327 40.9056 206.873C41.6923 206.42 42.5723 206.193 43.5456 206.193C44.5189 206.193 45.3923 206.42 46.1656 206.873C46.9389 207.327 47.5456 207.96 47.9856 208.773C48.4256 209.573 48.6456 210.493 48.6456 211.533L48.6256 211.973ZM43.5456 207.413C42.5323 207.413 41.6789 207.74 40.9856 208.393C40.3056 209.033 39.9189 209.873 39.8256 210.913H47.2856C47.1923 209.873 46.7989 209.033 46.1056 208.393C45.4256 207.74 44.5723 207.413 43.5456 207.413ZM51.5359 201.953H52.9559V216.793H51.5359V201.953ZM66.067 211.973H57.267C57.347 213.067 57.767 213.953 58.527 214.633C59.287 215.3 60.247 215.633 61.407 215.633C62.0603 215.633 62.6603 215.52 63.207 215.293C63.7537 215.053 64.227 214.707 64.627 214.253L65.427 215.173C64.9603 215.733 64.3737 216.16 63.667 216.453C62.9737 216.747 62.207 216.893 61.367 216.893C60.287 216.893 59.327 216.667 58.487 216.213C57.6603 215.747 57.0137 215.107 56.547 214.293C56.0803 213.48 55.847 212.56 55.847 211.533C55.847 210.507 56.067 209.587 56.507 208.773C56.9603 207.96 57.5737 207.327 58.347 206.873C59.1337 206.42 60.0137 206.193 60.987 206.193C61.9603 206.193 62.8337 206.42 63.607 206.873C64.3803 207.327 64.987 207.96 65.427 208.773C65.867 209.573 66.087 210.493 66.087 211.533L66.067 211.973ZM60.987 207.413C59.9737 207.413 59.1203 207.74 58.427 208.393C57.747 209.033 57.3603 209.873 57.267 210.913H64.727C64.6337 209.873 64.2403 209.033 63.547 208.393C62.867 207.74 62.0137 207.413 60.987 207.413ZM72.4573 203.053C71.844 203.053 71.3773 203.22 71.0573 203.553C70.7506 203.887 70.5973 204.38 70.5973 205.033V206.273H73.8373V207.473H70.6373V216.793H69.2173V207.473H67.3373V206.273H69.2173V204.973C69.2173 204.013 69.4906 203.253 70.0373 202.693C70.5973 202.133 71.384 201.853 72.3973 201.853C72.7973 201.853 73.184 201.913 73.5573 202.033C73.9306 202.14 74.244 202.3 74.4973 202.513L74.0173 203.573C73.604 203.227 73.084 203.053 72.4573 203.053ZM79.8789 216.893C78.8655 216.893 77.9522 216.667 77.1389 216.213C76.3255 215.747 75.6855 215.107 75.2189 214.293C74.7522 213.48 74.5189 212.56 74.5189 211.533C74.5189 210.507 74.7522 209.587 75.2189 208.773C75.6855 207.96 76.3255 207.327 77.1389 206.873C77.9522 206.42 78.8655 206.193 79.8789 206.193C80.8922 206.193 81.8055 206.42 82.6189 206.873C83.4322 207.327 84.0655 207.96 84.5189 208.773C84.9855 209.587 85.2189 210.507 85.2189 211.533C85.2189 212.56 84.9855 213.48 84.5189 214.293C84.0655 215.107 83.4322 215.747 82.6189 216.213C81.8055 216.667 80.8922 216.893 79.8789 216.893ZM79.8789 215.633C80.6255 215.633 81.2922 215.467 81.8789 215.133C82.4789 214.787 82.9455 214.3 83.2789 213.673C83.6122 213.047 83.7789 212.333 83.7789 211.533C83.7789 210.733 83.6122 210.02 83.2789 209.393C82.9455 208.767 82.4789 208.287 81.8789 207.953C81.2922 207.607 80.6255 207.433 79.8789 207.433C79.1322 207.433 78.4589 207.607 77.8589 207.953C77.2722 208.287 76.8055 208.767 76.4589 209.393C76.1255 210.02 75.9589 210.733 75.9589 211.533C75.9589 212.333 76.1255 213.047 76.4589 213.673C76.8055 214.3 77.2722 214.787 77.8589 215.133C78.4589 215.467 79.1322 215.633 79.8789 215.633ZM93.4779 206.193C94.7979 206.193 95.8446 206.58 96.6179 207.353C97.4046 208.113 97.7979 209.227 97.7979 210.693V216.793H96.3779V210.833C96.3779 209.74 96.1046 208.907 95.5579 208.333C95.0113 207.76 94.2313 207.473 93.2179 207.473C92.0846 207.473 91.1846 207.813 90.5179 208.493C89.8646 209.16 89.5379 210.087 89.5379 211.273V216.793H88.1179V206.273H89.4779V208.213C89.8646 207.573 90.3979 207.08 91.0779 206.733C91.7713 206.373 92.5713 206.193 93.4779 206.193ZM110.852 211.973H102.052C102.132 213.067 102.552 213.953 103.312 214.633C104.072 215.3 105.032 215.633 106.192 215.633C106.845 215.633 107.445 215.52 107.992 215.293C108.539 215.053 109.012 214.707 109.412 214.253L110.212 215.173C109.745 215.733 109.159 216.16 108.452 216.453C107.759 216.747 106.992 216.893 106.152 216.893C105.072 216.893 104.112 216.667 103.272 216.213C102.445 215.747 101.799 215.107 101.332 214.293C100.865 213.48 100.632 212.56 100.632 211.533C100.632 210.507 100.852 209.587 101.292 208.773C101.745 207.96 102.359 207.327 103.132 206.873C103.919 206.42 104.799 206.193 105.772 206.193C106.745 206.193 107.619 206.42 108.392 206.873C109.165 207.327 109.772 207.96 110.212 208.773C110.652 209.573 110.872 210.493 110.872 211.533L110.852 211.973ZM105.772 207.413C104.759 207.413 103.905 207.74 103.212 208.393C102.532 209.033 102.145 209.873 102.052 210.913H109.512C109.419 209.873 109.025 209.033 108.332 208.393C107.652 207.74 106.799 207.413 105.772 207.413Z" fill="white"/>
<path d="M39.275 360.471V361.751H29.375V347.751H38.975V349.031H30.855V354.011H38.095V355.271H30.855V360.471H39.275ZM41.2833 355.711H46.5233V356.951H41.2833V355.711ZM62.82 351.151C64.14 351.151 65.1733 351.531 65.92 352.291C66.68 353.051 67.06 354.171 67.06 355.651V361.751H65.64V355.791C65.64 354.698 65.3733 353.865 64.84 353.291C64.32 352.718 63.58 352.431 62.62 352.431C61.5266 352.431 60.6666 352.771 60.04 353.451C59.4133 354.118 59.1 355.045 59.1 356.231V361.751H57.68V355.791C57.68 354.698 57.4133 353.865 56.88 353.291C56.36 352.718 55.6133 352.431 54.64 352.431C53.56 352.431 52.7 352.771 52.06 353.451C51.4333 354.118 51.12 355.045 51.12 356.231V361.751H49.7V351.231H51.06V353.151C51.4333 352.511 51.9533 352.018 52.62 351.671C53.2866 351.325 54.0533 351.151 54.92 351.151C55.8 351.151 56.56 351.338 57.2 351.711C57.8533 352.085 58.34 352.638 58.66 353.371C59.0466 352.678 59.6 352.138 60.32 351.751C61.0533 351.351 61.8866 351.151 62.82 351.151ZM74.5909 351.151C75.9642 351.151 77.0176 351.498 77.7509 352.191C78.4842 352.871 78.8509 353.885 78.8509 355.231V361.751H77.4909V360.111C77.1709 360.658 76.6976 361.085 76.0709 361.391C75.4576 361.698 74.7242 361.851 73.8709 361.851C72.6976 361.851 71.7642 361.571 71.0709 361.011C70.3776 360.451 70.0309 359.711 70.0309 358.791C70.0309 357.898 70.3509 357.178 70.9909 356.631C71.6442 356.085 72.6776 355.811 74.0909 355.811H77.4309V355.171C77.4309 354.265 77.1776 353.578 76.6709 353.111C76.1642 352.631 75.4242 352.391 74.4509 352.391C73.7842 352.391 73.1442 352.505 72.5309 352.731C71.9176 352.945 71.3909 353.245 70.9509 353.631L70.3109 352.571C70.8442 352.118 71.4842 351.771 72.2309 351.531C72.9776 351.278 73.7642 351.151 74.5909 351.151ZM74.0909 360.731C74.8909 360.731 75.5776 360.551 76.1509 360.191C76.7242 359.818 77.1509 359.285 77.4309 358.591V356.871H74.1309C72.3309 356.871 71.4309 357.498 71.4309 358.751C71.4309 359.365 71.6642 359.851 72.1309 360.211C72.5976 360.558 73.2509 360.731 74.0909 360.731ZM82.7078 351.231H84.1278V361.751H82.7078V351.231ZM83.4278 348.931C83.1344 348.931 82.8878 348.831 82.6878 348.631C82.4878 348.431 82.3878 348.191 82.3878 347.911C82.3878 347.645 82.4878 347.411 82.6878 347.211C82.8878 347.011 83.1344 346.911 83.4278 346.911C83.7211 346.911 83.9678 347.011 84.1678 347.211C84.3678 347.398 84.4678 347.625 84.4678 347.891C84.4678 348.185 84.3678 348.431 84.1678 348.631C83.9678 348.831 83.7211 348.931 83.4278 348.931ZM88.0789 346.911H89.4989V361.751H88.0789V346.911Z" fill="white"/>
<rect x="27.095" y="100.251" width="432.165" height="62.3184" rx="5" fill="white"/>
<rect x="27.095" y="245.209" width="432.165" height="62.3184" rx="5" fill="white"/>
<rect x="27.095" y="390.168" width="432.165" height="62.3184" rx="5" fill="white"/>
<rect x="130.056" y="506.676" width="226.243" height="70.4469" rx="10" fill="white"/>
<path d="M200.534 532.774H215.432V536.934H205.942V539.794H214.548V543.954H205.942V546.84H215.692V551H200.534V532.774ZM228.084 536.648C229.089 536.648 229.973 536.873 230.736 537.324C231.516 537.757 232.114 538.381 232.53 539.196C232.963 540.011 233.18 540.955 233.18 542.03V551H227.928V543.538C227.928 542.845 227.737 542.29 227.356 541.874C226.992 541.458 226.507 541.25 225.9 541.25C225.189 541.267 224.626 541.527 224.21 542.03C223.794 542.533 223.586 543.191 223.586 544.006V551H218.334V536.856H223.586V539.04C224.089 538.26 224.713 537.671 225.458 537.272C226.221 536.856 227.096 536.648 228.084 536.648ZM234.085 536.856H239.493L242.093 546.216L244.719 536.856H249.971L244.693 551H239.337L234.085 536.856ZM251.316 536.856H256.568V551H251.316V536.856ZM253.916 530.122C254.714 530.122 255.364 530.373 255.866 530.876C256.369 531.379 256.62 532.029 256.62 532.826C256.62 533.623 256.369 534.273 255.866 534.776C255.364 535.279 254.714 535.53 253.916 535.53C253.119 535.53 252.46 535.279 251.94 534.776C251.438 534.273 251.186 533.623 251.186 532.826C251.186 532.029 251.438 531.379 251.94 530.876C252.46 530.373 253.119 530.122 253.916 530.122ZM266.402 536.648C268.395 536.648 269.947 537.107 271.056 538.026C272.183 538.927 272.746 540.193 272.746 541.822V551H267.598V549.44C267.165 550.012 266.593 550.454 265.882 550.766C265.189 551.078 264.383 551.234 263.464 551.234C261.973 551.234 260.803 550.835 259.954 550.038C259.105 549.223 258.68 548.14 258.68 546.788C258.68 545.419 259.139 544.37 260.058 543.642C260.994 542.897 262.355 542.515 264.14 542.498H267.598V542.446C267.598 541.857 267.39 541.397 266.974 541.068C266.558 540.739 265.951 540.574 265.154 540.574C264.582 540.574 263.915 540.661 263.152 540.834C262.407 541.007 261.653 541.259 260.89 541.588L259.59 538.104C261.982 537.133 264.253 536.648 266.402 536.648ZM265.206 547.802C265.743 547.802 266.229 547.672 266.662 547.412C267.095 547.152 267.407 546.797 267.598 546.346V545.072H265.206C264.149 545.072 263.62 545.514 263.62 546.398C263.62 546.849 263.759 547.195 264.036 547.438C264.313 547.681 264.703 547.802 265.206 547.802ZM280.791 539.092C281.294 538.312 281.918 537.714 282.663 537.298C283.426 536.865 284.284 536.648 285.237 536.648V541.38C285.029 541.345 284.726 541.328 284.327 541.328C283.235 541.328 282.368 541.588 281.727 542.108C281.103 542.628 280.791 543.339 280.791 544.24V551H275.539V536.856H280.791V539.092Z" fill="#00B1AD"/>
</svg>
